<svg width="12" height="15" viewBox="0 0 12 15" fill="none" xmlns="http://www.w3.org/2000/svg">
<path d="M1.1926 14.1667C1.30678 13.0686 1.79454 12.0369 2.58234 11.2491C3.48876 10.3426 4.71814 9.83342 6.00002 9.83342C7.2819 9.83342 8.51128 10.3426 9.4177 11.2491C10.2055 12.0369 10.6933 13.0686 10.8074 14.1667H10.4722C10.3593 13.1572 9.90722 12.21 9.182 11.4848C8.33809 10.6409 7.19349 10.1667 6.00002 10.1667C4.80655 10.1667 3.66195 10.6409 2.81804 11.4848C2.09283 12.21 1.64071 13.1572 1.52787 14.1667H1.1926ZM6.00002 8.16675C4.06616 8.16675 2.50002 6.60061 2.50002 4.66675C2.50002 2.73289 4.06616 1.16675 6.00002 1.16675C7.93388 1.16675 9.50002 2.73289 9.50002 4.66675C9.50002 6.60061 7.93388 8.16675 6.00002 8.16675ZM6.00002 7.83342C7.7495 7.83342 9.16669 6.41622 9.16669 4.66675C9.16669 2.91727 7.7495 1.50008 6.00002 1.50008C4.25054 1.50008 2.83335 2.91727 2.83335 4.66675C2.83335 6.41622 4.25054 7.83342 6.00002 7.83342Z" fill="black" stroke="black"/>
</svg>
