<svg width="14" height="14" viewBox="0 0 14 14" fill="none" xmlns="http://www.w3.org/2000/svg">
<mask id="path-1-outside-1_13654_690" maskUnits="userSpaceOnUse" x="-0.733337" y="-0.127197" width="15" height="14" fill="black">
<rect fill="white" x="-0.733337" y="-0.127197" width="15" height="14"/>
<path d="M6.39394 13.0607C3.04666 13.0607 0.333329 10.3474 0.333329 7.00008C0.333329 3.6528 3.04666 0.939471 6.39394 0.939471C7.33494 0.938764 8.26314 1.15752 9.1048 1.57834C9.94646 1.99917 10.6784 2.61049 11.2424 3.36371H9.6C8.90014 2.7466 8.03707 2.34454 7.11437 2.20577C6.19167 2.06701 5.24852 2.19744 4.39811 2.58142C3.5477 2.96539 2.82615 3.5866 2.32004 4.37049C1.81393 5.15439 1.54477 6.06767 1.54484 7.00075C1.54492 7.93383 1.81424 8.84706 2.32048 9.63087C2.82672 10.4147 3.54837 11.0358 4.39885 11.4196C5.24932 11.8034 6.19249 11.9337 7.11517 11.7948C8.03785 11.6559 8.90084 11.2537 9.6006 10.6364H11.243C10.6789 11.3897 9.94691 12.0011 9.10514 12.4219C8.26336 12.8428 7.33504 13.0615 6.39394 13.0607ZM10.6364 9.42432V7.60614H5.78787V6.39402H10.6364V4.57583L13.6667 7.00008L10.6364 9.42432Z"/>
<path fill-rule="evenodd" clip-rule="evenodd" d="M6.39394 13.0607C3.04666 13.0607 0.333329 10.3474 0.333329 7.00008C0.333329 3.6528 3.04666 0.939471 6.39394 0.939471C7.33494 0.938764 8.26314 1.15752 9.1048 1.57834C9.92149 1.98669 10.6349 2.57438 11.1918 3.29705C11.2088 3.31914 11.2257 3.34137 11.2424 3.36371H9.6C8.90014 2.7466 8.03707 2.34454 7.11437 2.20577C6.19167 2.06701 5.24852 2.19744 4.39811 2.58142C3.5477 2.96539 2.82615 3.5866 2.32004 4.37049C1.81393 5.15439 1.54477 6.06767 1.54484 7.00075C1.54492 7.93383 1.81424 8.84706 2.32048 9.63087C2.82672 10.4147 3.54837 11.0358 4.39885 11.4196C5.24932 11.8034 6.19249 11.9337 7.11517 11.7948C8.03785 11.6559 8.90084 11.2537 9.6006 10.6364H11.243C11.2263 10.6588 11.2094 10.681 11.1924 10.7031C10.6354 11.4259 9.92194 12.0136 9.10514 12.4219C8.26336 12.8428 7.33504 13.0615 6.39394 13.0607ZM11.3756 3.43038H9.5748L9.5559 3.41372C8.86567 2.80509 8.01447 2.40855 7.10445 2.2717C6.19444 2.13485 5.26426 2.26348 4.42554 2.64218C3.58683 3.02087 2.87519 3.63354 2.37605 4.40665C1.8769 5.17977 1.61143 6.08049 1.61151 7.00074C1.61159 7.92099 1.8772 8.82167 2.37648 9.59471C2.87576 10.3677 3.58749 10.9803 4.42627 11.3588C5.26505 11.7374 6.19525 11.8659 7.10524 11.7289C8.01524 11.5919 8.86637 11.1952 9.5565 10.5864L9.5754 10.5698H11.3762L11.2964 10.6764C10.7261 11.438 9.98599 12.0561 9.13495 12.4816C8.2839 12.907 7.34535 13.1282 6.39388 13.1273C3.00981 13.1273 0.266663 10.3842 0.266663 7.00008C0.266663 3.61599 3.00983 0.872817 6.39391 0.872804C7.34527 0.872094 8.28369 1.09325 9.13462 1.51872C9.98555 1.94418 10.7255 2.56223 11.2958 3.32375L11.3756 3.43038ZM10.5697 9.56303V7.67281H5.72121V6.32735H10.5697V4.43713L13.7734 7.00008L10.5697 9.56303ZM10.6364 6.39402H5.78787V7.60614H10.6364V9.42432L13.6667 7.00008L10.6364 4.57583V6.39402Z"/>
</mask>
<path d="M6.39394 13.0607C3.04666 13.0607 0.333329 10.3474 0.333329 7.00008C0.333329 3.6528 3.04666 0.939471 6.39394 0.939471C7.33494 0.938764 8.26314 1.15752 9.1048 1.57834C9.94646 1.99917 10.6784 2.61049 11.2424 3.36371H9.6C8.90014 2.7466 8.03707 2.34454 7.11437 2.20577C6.19167 2.06701 5.24852 2.19744 4.39811 2.58142C3.5477 2.96539 2.82615 3.5866 2.32004 4.37049C1.81393 5.15439 1.54477 6.06767 1.54484 7.00075C1.54492 7.93383 1.81424 8.84706 2.32048 9.63087C2.82672 10.4147 3.54837 11.0358 4.39885 11.4196C5.24932 11.8034 6.19249 11.9337 7.11517 11.7948C8.03785 11.6559 8.90084 11.2537 9.6006 10.6364H11.243C10.6789 11.3897 9.94691 12.0011 9.10514 12.4219C8.26336 12.8428 7.33504 13.0615 6.39394 13.0607ZM10.6364 9.42432V7.60614H5.78787V6.39402H10.6364V4.57583L13.6667 7.00008L10.6364 9.42432Z" fill="black"/>
<path fill-rule="evenodd" clip-rule="evenodd" d="M6.39394 13.0607C3.04666 13.0607 0.333329 10.3474 0.333329 7.00008C0.333329 3.6528 3.04666 0.939471 6.39394 0.939471C7.33494 0.938764 8.26314 1.15752 9.1048 1.57834C9.92149 1.98669 10.6349 2.57438 11.1918 3.29705C11.2088 3.31914 11.2257 3.34137 11.2424 3.36371H9.6C8.90014 2.7466 8.03707 2.34454 7.11437 2.20577C6.19167 2.06701 5.24852 2.19744 4.39811 2.58142C3.5477 2.96539 2.82615 3.5866 2.32004 4.37049C1.81393 5.15439 1.54477 6.06767 1.54484 7.00075C1.54492 7.93383 1.81424 8.84706 2.32048 9.63087C2.82672 10.4147 3.54837 11.0358 4.39885 11.4196C5.24932 11.8034 6.19249 11.9337 7.11517 11.7948C8.03785 11.6559 8.90084 11.2537 9.6006 10.6364H11.243C11.2263 10.6588 11.2094 10.681 11.1924 10.7031C10.6354 11.4259 9.92194 12.0136 9.10514 12.4219C8.26336 12.8428 7.33504 13.0615 6.39394 13.0607ZM11.3756 3.43038H9.5748L9.5559 3.41372C8.86567 2.80509 8.01447 2.40855 7.10445 2.2717C6.19444 2.13485 5.26426 2.26348 4.42554 2.64218C3.58683 3.02087 2.87519 3.63354 2.37605 4.40665C1.8769 5.17977 1.61143 6.08049 1.61151 7.00074C1.61159 7.92099 1.8772 8.82167 2.37648 9.59471C2.87576 10.3677 3.58749 10.9803 4.42627 11.3588C5.26505 11.7374 6.19525 11.8659 7.10524 11.7289C8.01524 11.5919 8.86637 11.1952 9.5565 10.5864L9.5754 10.5698H11.3762L11.2964 10.6764C10.7261 11.438 9.98599 12.0561 9.13495 12.4816C8.2839 12.907 7.34535 13.1282 6.39388 13.1273C3.00981 13.1273 0.266663 10.3842 0.266663 7.00008C0.266663 3.61599 3.00983 0.872817 6.39391 0.872804C7.34527 0.872094 8.28369 1.09325 9.13462 1.51872C9.98555 1.94418 10.7255 2.56223 11.2958 3.32375L11.3756 3.43038ZM10.5697 9.56303V7.67281H5.72121V6.32735H10.5697V4.43713L13.7734 7.00008L10.5697 9.56303ZM10.6364 6.39402H5.78787V7.60614H10.6364V9.42432L13.6667 7.00008L10.6364 4.57583V6.39402Z" fill="black"/>
<path d="M6.39394 13.0607L6.39398 13.0107H6.39394V13.0607ZM6.39394 0.939471V0.989471L6.39397 0.989471L6.39394 0.939471ZM9.6 3.36371L9.56693 3.40122L9.5811 3.41371H9.6V3.36371ZM9.6006 10.6364V10.5864H9.5817L9.56753 10.5989L9.6006 10.6364ZM10.6364 9.42432H10.5864V9.52835L10.6676 9.46336L10.6364 9.42432ZM10.6364 7.60614H10.6864V7.55614H10.6364V7.60614ZM5.78787 7.60614H5.73787V7.65614H5.78787V7.60614ZM5.78787 6.39402V6.34402H5.73787V6.39402H5.78787ZM10.6364 6.39402V6.44402H10.6864V6.39402H10.6364ZM10.6364 4.57583L10.6676 4.53679L10.5864 4.4718V4.57583H10.6364ZM13.6667 7.00008L13.6979 7.03912L13.7467 7.00008L13.6979 6.96103L13.6667 7.00008ZM6.39394 13.0107C3.07428 13.0107 0.383329 10.3197 0.383329 7.00008H0.283329C0.283329 10.375 3.01905 13.1107 6.39394 13.1107V13.0107ZM0.383329 7.00008C0.383329 3.68042 3.07428 0.989471 6.39394 0.989471V0.889471C3.01905 0.889471 0.283329 3.62519 0.283329 7.00008H0.383329ZM6.39397 0.989471C7.3272 0.98877 8.24774 1.20571 9.08244 1.62307L9.12716 1.53362C8.27855 1.10932 7.34268 0.888758 6.3939 0.889471L6.39397 0.989471ZM11.2424 3.31371H9.6V3.41371H11.2424V3.31371ZM9.63307 3.32621C8.92599 2.70273 8.05402 2.29652 7.1218 2.15633L7.10693 2.25522C8.02012 2.39255 8.87428 2.79047 9.56693 3.40122L9.63307 3.32621ZM7.1218 2.15633C6.18959 2.01614 5.23671 2.14791 4.37753 2.53585L4.41868 2.62699C5.26033 2.24697 6.19374 2.11789 7.10693 2.25522L7.1218 2.15633ZM4.37753 2.53585C3.51835 2.92378 2.78936 3.55139 2.27803 4.34337L2.36204 4.39761C2.86293 3.6218 3.57704 3.007 4.41868 2.62699L4.37753 2.53585ZM2.27803 4.34337C1.7667 5.13535 1.49476 6.05805 1.49484 7.00075L1.59484 7.00074C1.59477 6.07729 1.86115 5.17342 2.36204 4.39761L2.27803 4.34337ZM1.49484 7.00075C1.49492 7.94345 1.76702 8.86611 2.27848 9.658L2.36248 9.60375C1.86146 8.82802 1.59492 7.9242 1.59484 7.00074L1.49484 7.00075ZM2.27848 9.658C2.78993 10.4499 3.51903 11.0774 4.37828 11.4652L4.41941 11.374C3.57771 10.9942 2.8635 10.3795 2.36248 9.60375L2.27848 9.658ZM4.37828 11.4652C5.23752 11.853 6.19042 11.9846 7.12261 11.8442L7.10772 11.7454C6.19456 11.8828 5.26112 11.7539 4.41941 11.374L4.37828 11.4652ZM7.12261 11.8442C8.05481 11.7039 8.9267 11.2975 9.63368 10.6739L9.56753 10.5989C8.87499 11.2098 8.02089 11.6079 7.10772 11.7454L7.12261 11.8442ZM9.6006 10.6864H11.243V10.5864H9.6006V10.6864ZM9.08278 12.3772C8.24796 12.7946 7.32731 13.0115 6.39398 13.0107L6.39389 13.1107C7.34277 13.1115 8.27877 12.891 9.12749 12.4667L9.08278 12.3772ZM10.6864 9.42432V7.60614H10.5864V9.42432H10.6864ZM10.6364 7.55614H5.78787V7.65614H10.6364V7.55614ZM5.83787 7.60614V6.39402H5.73787V7.60614H5.83787ZM5.78787 6.44402H10.6364V6.34402H5.78787V6.44402ZM10.6864 6.39402V4.57583H10.5864V6.39402H10.6864ZM10.6051 4.61488L13.6354 7.03912L13.6979 6.96103L10.6676 4.53679L10.6051 4.61488ZM13.6354 6.96103L10.6051 9.38528L10.6676 9.46336L13.6979 7.03912L13.6354 6.96103ZM6.34394 13.0606L6.34388 13.1273L6.44388 13.1274L6.44393 13.0607L6.34394 13.0606ZM11.2424 3.36371L11.1624 3.42365L11.3225 3.30378L11.2424 3.36371ZM11.243 10.6364L11.3231 10.6964L11.163 10.5765L11.243 10.6364ZM11.1918 3.29705L11.1126 3.35809L11.1126 3.35809L11.1918 3.29705ZM11.1924 10.7031L11.1132 10.6421L11.1924 10.7031ZM11.3756 3.43038V3.53038H11.5754L11.4557 3.37044L11.3756 3.43038ZM9.5748 3.43038L9.50867 3.50539L9.53701 3.53038H9.5748V3.43038ZM9.5559 3.41372L9.48977 3.48872V3.48872L9.5559 3.41372ZM7.10445 2.2717L7.08958 2.37059L7.10445 2.2717ZM4.42554 2.64218L4.46669 2.73332L4.42554 2.64218ZM2.37605 4.40665L2.29203 4.35241L2.37605 4.40665ZM1.61151 7.00074L1.51151 7.00075L1.61151 7.00074ZM2.37648 9.59471L2.29248 9.64896L2.37648 9.59471ZM4.42627 11.3588L4.46741 11.2677L4.42627 11.3588ZM7.10524 11.7289L7.09035 11.63L7.10524 11.7289ZM9.5565 10.5864L9.49035 10.5114H9.49035L9.5565 10.5864ZM9.5754 10.5698V10.4698H9.5376L9.50925 10.4948L9.5754 10.5698ZM11.3762 10.5698L11.4563 10.6297L11.576 10.4698H11.3762V10.5698ZM11.2964 10.6764L11.2163 10.6165L11.2964 10.6764ZM9.13495 12.4816L9.09023 12.3921L9.13495 12.4816ZM6.39388 13.1273L6.39396 13.0274H6.39388L6.39388 13.1273ZM6.39391 0.872804L6.39391 0.972804L6.39399 0.972804L6.39391 0.872804ZM9.13462 1.51872L9.17934 1.42927L9.13462 1.51872ZM11.2958 3.32375L11.2157 3.38369V3.38369L11.2958 3.32375ZM10.5697 9.56303H10.4697V9.77109L10.6322 9.64112L10.5697 9.56303ZM10.5697 7.67281H10.6697V7.57281H10.5697V7.67281ZM5.72121 7.67281H5.62121V7.77281H5.72121V7.67281ZM5.72121 6.32735V6.22735H5.62121V6.32735H5.72121ZM10.5697 6.32735V6.42735H10.6697V6.32735H10.5697ZM10.5697 4.43713L10.6322 4.35904L10.4697 4.22906V4.43713H10.5697ZM13.7734 7.00008L13.8359 7.07816L13.9335 7.00008L13.8359 6.92199L13.7734 7.00008ZM9.06008 1.66779C9.88783 2.08166 10.6077 2.68287 11.1624 3.42365L11.3225 3.30377C10.7491 2.5381 10.0051 1.91669 9.14952 1.4889L9.06008 1.66779ZM11.163 10.5765C10.6082 11.3174 9.88828 11.9186 9.06042 12.3325L9.14985 12.5114C10.0055 12.0836 10.7497 11.4621 11.3231 10.6964L11.163 10.5765ZM9.06008 1.66779C9.86327 2.06938 10.5649 2.64736 11.1126 3.35809L11.271 3.23601C10.7049 2.5014 9.97971 1.90399 9.14952 1.4889L9.06008 1.66779ZM11.1126 3.35809C11.1293 3.37982 11.1459 3.40168 11.1624 3.42365L11.3225 3.30378C11.3055 3.28106 11.2883 3.25847 11.271 3.23601L11.1126 3.35809ZM11.163 10.5765C11.1465 10.5985 11.1299 10.6203 11.1132 10.6421L11.2716 10.7641C11.2889 10.7417 11.3061 10.7191 11.3231 10.6964L11.163 10.5765ZM11.1132 10.6421C10.5654 11.3529 9.86372 11.9309 9.06042 12.3325L9.14985 12.5114C9.98015 12.0963 10.7054 11.4988 11.2716 10.7641L11.1132 10.6421ZM9.48977 3.48872L9.50867 3.50539L9.64094 3.35537L9.62204 3.33871L9.48977 3.48872ZM7.08958 2.37059C7.98057 2.50458 8.81396 2.89282 9.48977 3.48872L9.62204 3.33871C8.91737 2.71735 8.04837 2.31253 7.11933 2.17281L7.08958 2.37059ZM4.46669 2.73332C5.28787 2.36254 6.1986 2.2366 7.08958 2.37059L7.11933 2.17281C6.19028 2.0331 5.24065 2.16442 4.38439 2.55104L4.46669 2.73332ZM2.46006 4.46089C2.94877 3.70395 3.64552 3.10409 4.46669 2.73332L4.38439 2.55104C3.52813 2.93765 2.80162 3.56313 2.29203 4.35241L2.46006 4.46089ZM1.71151 7.00074C1.71143 6.09973 1.97135 5.21784 2.46006 4.46089L2.29203 4.35241C1.78245 5.1417 1.51143 6.06126 1.51151 7.00075L1.71151 7.00074ZM2.46048 9.54045C1.97164 8.78358 1.71158 7.90174 1.71151 7.00074L1.51151 7.00075C1.51159 7.94025 1.78276 8.85976 2.29248 9.64896L2.46048 9.54045ZM4.46741 11.2677C3.64617 10.8971 2.94932 10.2973 2.46048 9.54045L2.29248 9.64896C2.80219 10.4382 3.52881 11.0635 4.38513 11.45L4.46741 11.2677ZM7.09035 11.63C6.19939 11.7641 5.28865 11.6383 4.46741 11.2677L4.38513 11.45C5.24146 11.8365 6.19111 11.9676 7.12013 11.8278L7.09035 11.63ZM9.49035 10.5114C8.81465 11.1075 7.98132 11.4958 7.09035 11.63L7.12013 11.8278C8.04915 11.6879 8.91808 11.2829 9.62265 10.6614L9.49035 10.5114ZM9.50925 10.4948L9.49035 10.5114L9.62265 10.6614L9.64155 10.6448L9.50925 10.4948ZM11.3764 10.7363L11.4563 10.6297L11.2962 10.5098L11.2163 10.6165L11.3764 10.7363ZM9.17966 12.571C10.0446 12.1386 10.7968 11.5104 11.3764 10.7363L11.2163 10.6165C10.6554 11.3656 9.92737 11.9736 9.09023 12.3921L9.17966 12.571ZM6.39379 13.2274C7.36082 13.2282 8.31471 13.0034 9.17966 12.571L9.09023 12.3921C8.2531 12.8106 7.32989 13.0281 6.39396 13.0274L6.39379 13.2274ZM0.166663 7.00008C0.166663 10.4394 2.95458 13.2273 6.39388 13.2274L6.39388 13.0274C3.06504 13.0273 0.366663 10.3289 0.366663 7.00008H0.166663ZM6.39391 0.772804C2.9546 0.772817 0.166663 3.56077 0.166663 7.00008H0.366663C0.366663 3.67122 3.06506 0.972817 6.39391 0.972804L6.39391 0.772804ZM9.17934 1.42927C8.31451 0.996858 7.36075 0.772083 6.39384 0.772804L6.39399 0.972804C7.3298 0.972106 8.25288 1.18965 9.08989 1.60816L9.17934 1.42927ZM11.3758 3.26381C10.7963 2.48984 10.0442 1.86169 9.17934 1.42927L9.08989 1.60816C9.92692 2.02667 10.6548 2.63462 11.2157 3.38369L11.3758 3.26381ZM11.4557 3.37044L11.3758 3.26381L11.2157 3.38369L11.2956 3.49032L11.4557 3.37044ZM9.5748 3.53038H11.3756V3.33038H9.5748V3.53038ZM11.3762 10.4698H9.5754V10.6698H11.3762V10.4698ZM10.4697 7.67281V9.56303H10.6697V7.67281H10.4697ZM5.72121 7.77281H10.5697V7.57281H5.72121V7.77281ZM5.62121 6.32735V7.67281H5.82121V6.32735H5.62121ZM10.5697 6.22735H5.72121V6.42735H10.5697V6.22735ZM10.4697 4.43713V6.32735H10.6697V4.43713H10.4697ZM13.8359 6.92199L10.6322 4.35904L10.5072 4.51521L13.7109 7.07816L13.8359 6.92199ZM10.6322 9.64112L13.8359 7.07816L13.7109 6.92199L10.5072 9.48494L10.6322 9.64112Z" fill="#595959" mask="url(#path-1-outside-1_13654_690)"/>
</svg>
