<svg width="16" height="16" viewBox="0 0 16 16" fill="none" xmlns="http://www.w3.org/2000/svg">
<path d="M5.79065 3.16659H5.99776L6.1442 3.02014L7.88215 1.2822C7.88217 1.28218 7.88219 1.28216 7.88221 1.28214C7.91346 1.25093 7.95582 1.2334 7.99998 1.2334C8.04415 1.2334 8.08652 1.25093 8.11776 1.28214C8.11778 1.28216 8.1178 1.28218 8.11782 1.2822L9.85577 3.02014L10.0022 3.16659H10.2093H12.6667C12.7109 3.16659 12.7532 3.18415 12.7845 3.21541C12.8158 3.24666 12.8333 3.28905 12.8333 3.33326V5.79059V5.9977L12.9798 6.14414L14.7177 7.88209C14.7177 7.88211 14.7177 7.88213 14.7178 7.88214C14.749 7.91339 14.7665 7.95575 14.7665 7.99992C14.7665 8.04409 14.749 8.08646 14.7178 8.1177C14.7177 8.11772 14.7177 8.11774 14.7177 8.11776L12.9798 9.8557L12.8333 10.0022V10.2093V12.6666C12.8333 12.7108 12.8158 12.7532 12.7845 12.7844C12.7532 12.8157 12.7109 12.8333 12.6667 12.8333H10.2093H10.0022L9.85577 12.9797L8.11782 14.7177C8.1178 14.7177 8.11778 14.7177 8.11776 14.7177C8.08652 14.7489 8.04415 14.7664 7.99998 14.7664C7.95581 14.7664 7.91345 14.7489 7.88221 14.7177C7.88219 14.7177 7.88217 14.7177 7.88215 14.7177L6.1442 12.9797L5.99776 12.8333H5.79065H3.33332C3.28911 12.8333 3.24672 12.8157 3.21547 12.7844C3.18421 12.7532 3.16665 12.7108 3.16665 12.6666V10.2093V10.0022L3.0202 9.8557L1.28226 8.11776C1.28224 8.11774 1.28222 8.11772 1.2822 8.1177C1.25099 8.08645 1.23346 8.04409 1.23346 7.99992C1.23346 7.95576 1.25099 7.91339 1.2822 7.88214C1.28222 7.88213 1.28224 7.88211 1.28226 7.88209L3.0202 6.14414L3.16665 5.9977V5.79059V3.33326C3.16665 3.28905 3.18421 3.24666 3.21547 3.21541C3.24672 3.18415 3.28911 3.16659 3.33332 3.16659H5.79065ZM3.99998 3.49992H3.49998V3.99992V6.13615L1.98976 7.64637L1.63621 7.99992L1.98976 8.35348L3.49998 9.8637V11.9999V12.4999H3.99998H6.13621L7.64643 14.0101L7.99998 14.3637L8.35354 14.0101L9.86376 12.4999H12H12.5V11.9999V9.8637L14.0102 8.35348L14.3638 7.99992L14.0102 7.64637L12.5 6.13615V3.99992V3.49992H12H9.86376L8.35354 1.9897L7.99998 1.63615L7.64643 1.9897L6.13621 3.49992H3.99998ZM7.99998 10.1666C7.42535 10.1666 6.87425 9.93832 6.46792 9.53199C6.06159 9.12566 5.83332 8.57456 5.83332 7.99992C5.83332 7.42529 6.06159 6.87419 6.46792 6.46786C6.87425 6.06153 7.42535 5.83326 7.99998 5.83326C8.57462 5.83326 9.12572 6.06153 9.53205 6.46786C9.93838 6.87419 10.1667 7.42529 10.1667 7.99992C10.1667 8.57456 9.93838 9.12566 9.53205 9.53199C9.12572 9.93832 8.57462 10.1666 7.99998 10.1666ZM7.99998 9.83326C8.48622 9.83326 8.95253 9.6401 9.29635 9.29629C9.64016 8.95247 9.83332 8.48615 9.83332 7.99992C9.83332 7.51369 9.64016 7.04738 9.29635 6.70356C8.95253 6.35974 8.48622 6.16659 7.99998 6.16659C7.51375 6.16659 7.04744 6.35974 6.70362 6.70356C6.35981 7.04738 6.16665 7.51369 6.16665 7.99992C6.16665 8.48615 6.35981 8.95247 6.70362 9.29629C7.04744 9.6401 7.51375 9.83326 7.99998 9.83326Z" fill="black" stroke="black"/>
</svg>
