<svg width="30" height="30" viewBox="0 0 30 30" fill="transparent" xmlns="http://www.w3.org/2000/svg">
<rect width="30" height="30" fill="transparent"/>
<path d="M-51 -43C-51 -47.4183 -47.4183 -51 -43 -51H73C77.4183 -51 81 -47.4183 81 -43V73C81 77.4183 77.4183 81 73 81H-43C-47.4183 81 -51 77.4183 -51 73V-43Z" fill="transparent"/>
<path d="M-43 -50H73V-52H-43V-50ZM80 -43V73H82V-43H80ZM73 80H-43V82H73V80ZM-50 73V-43H-52V73H-50ZM-43 80C-46.866 80 -50 76.866 -50 73H-52C-52 77.9706 -47.9706 82 -43 82V80ZM80 73C80 76.866 76.866 80 73 80V82C77.9706 82 82 77.9706 82 73H80ZM73 -50C76.866 -50 80 -46.866 80 -43H82C82 -47.9706 77.9706 -52 73 -52V-50ZM-43 -52C-47.9706 -52 -52 -47.9706 -52 -43H-50C-50 -46.866 -46.866 -50 -43 -50V-52Z" fill="#E7E7E7"/>
<path d="M30 15C30 6.71572 23.2843 0 15 0C6.71572 0 0 6.71572 0 15C0 22.4868 5.48525 28.6925 12.6562 29.8178V19.3359H8.84766V15H12.6562V11.6953C12.6562 7.93594 14.8957 5.85938 18.322 5.85938C19.9626 5.85938 21.6797 6.15234 21.6797 6.15234V9.84375H19.7883C17.925 9.84375 17.3438 11.0001 17.3438 12.1875V15H21.5039L20.8389 19.3359H17.3438V29.8178C24.5147 28.6925 30 22.4868 30 15Z" fill="#1877F2"/>
<path d="M20.8389 19.3359L21.5039 15H17.3438V12.1875C17.3438 11.0013 17.925 9.84375 19.7883 9.84375H21.6797V6.15234C21.6797 6.15234 19.9632 5.85938 18.322 5.85938C14.8957 5.85938 12.6562 7.93594 12.6562 11.6953V15H8.84766V19.3359H12.6562V29.8178C14.2093 30.0607 15.7907 30.0607 17.3438 29.8178V19.3359H20.8389Z" fill="white"/>
<rect x="-408.5" y="-424.5" width="743" height="2224" rx="4.5" stroke="#7B61FF" stroke-dasharray="10 5"/>
</svg>
