<svg width="600" height="115" viewBox="0 0 600 115" fill="none" xmlns="http://www.w3.org/2000/svg">
<path d="M97.5957 40.2329L29.6393 2.47934C26.5965 0.901577 23.3283 0 19.9474 0C8.90307 0 0 8.90307 0 19.9474V94.7783C0 105.823 8.90307 114.726 19.9474 114.726C23.3283 114.726 26.4838 113.937 29.5266 112.246L97.483 75.169C103.907 71.6754 107.851 65.1389 107.851 57.7009C107.851 50.2629 104.019 43.7265 97.5957 40.2329ZM95.9052 57.7009C95.9052 60.6311 94.3275 63.2231 91.7355 64.6882L23.7791 101.766C20.6236 103.456 16.7919 102.892 14.3125 100.526C12.7348 99.0608 11.9459 97.0322 11.9459 94.7783V19.9474C11.9459 14.9887 16.1157 11.9459 19.9474 11.9459C21.2998 11.9459 22.5394 12.284 23.7791 12.9602L91.7355 50.601C94.3275 52.0661 95.9052 54.6581 95.9052 57.7009Z" fill="url(#paint0_linear_8542_334704)"/>
<path d="M120.361 0.113258C116.98 0.113258 113.711 1.01484 110.669 2.70529L70.6612 24.9066L82.9452 31.6684L116.416 13.0734C119.572 11.383 123.403 11.9465 125.883 14.3131C127.461 15.7782 128.249 17.8067 128.249 20.0606V94.6661C128.249 99.6248 124.08 102.668 120.248 102.668C118.896 102.668 117.656 102.33 116.416 101.653L83.1706 83.3964L70.7739 90.1583L110.781 112.134C113.824 113.825 116.98 114.614 120.361 114.614C131.405 114.614 140.308 105.71 140.308 94.6661V20.0606C140.308 9.01633 131.292 0.113258 120.361 0.113258Z" fill="url(#paint1_linear_8542_334704)"/>
<path d="M106.161 18.8198L93.3133 12.2833L70.6612 24.9054L82.9452 31.6673L106.161 18.8198Z" fill="url(#paint2_linear_8542_334704)"/>
<path d="M103.794 94.7783L83.0579 83.3959L70.6612 90.1577L91.9609 101.878L103.794 94.7783Z" fill="url(#paint3_linear_8542_334704)"/>
<path d="M231.819 82.1566V55.7855C231.819 54.4331 231.706 53.0807 231.48 51.8411C231.255 50.6014 230.917 49.4744 230.466 48.5728C229.903 47.6713 229.226 46.9951 228.438 46.4316C227.536 45.8681 226.409 45.6427 225.057 45.6427C223.704 45.6427 222.577 45.9808 221.563 46.5443C220.549 47.1078 219.76 47.8967 219.084 48.9109C218.408 49.9252 217.957 51.0522 217.619 52.2919C217.281 53.5315 217.168 54.8839 217.168 56.2363V82.382H201.503V54.6585C201.503 51.8411 200.94 49.6998 199.925 48.0094C198.798 46.4316 197.108 45.53 194.741 45.53C192.262 45.53 190.346 46.5443 188.994 48.5728C187.641 50.6014 186.965 53.0807 186.965 55.8982V82.0439H171.188V33.9222H186.289V40.5714H186.514C187.078 39.5571 187.754 38.5428 188.656 37.5285C189.557 36.5143 190.571 35.7254 191.698 34.9365C192.938 34.1476 194.29 33.5841 195.755 33.1333C197.221 32.6826 198.911 32.4572 200.714 32.4572C204.095 32.4572 207.025 33.1333 209.392 34.5984C211.758 36.0635 213.674 38.092 214.914 40.684C216.492 38.2047 218.52 36.1762 221 34.7111C223.479 33.246 226.522 32.4572 230.015 32.4572C233.284 32.4572 235.988 33.0206 238.13 34.2603C240.271 35.5 242.074 36.965 243.426 38.8809C244.779 40.7967 245.68 42.938 246.356 45.3046C246.92 47.6713 247.258 49.9252 247.258 52.2919V82.1566H231.819Z" fill="#111F3B"/>
<path d="M302.592 58.6035C302.592 59.2796 302.592 59.8431 302.592 60.5193C302.592 61.1955 302.592 61.759 302.48 62.3225H268.107C268.22 63.6748 268.671 64.9145 269.347 66.0415C270.023 67.1684 270.925 68.07 271.939 68.8589C272.953 69.6478 274.193 70.324 275.432 70.7748C276.785 71.2255 278.137 71.4509 279.49 71.4509C281.969 71.4509 284.11 71.0002 285.801 70.0986C287.491 69.197 288.956 67.9573 289.97 66.4923L300.789 73.4795C298.535 76.7477 295.605 79.3397 291.999 81.1429C288.393 82.946 284.11 83.8476 279.264 83.8476C275.658 83.8476 272.39 83.2841 269.121 82.1572C265.966 81.0302 263.148 79.3397 260.782 77.1985C258.415 75.0572 256.499 72.3525 255.147 69.197C253.795 66.0415 253.118 62.4352 253.118 58.3781C253.118 54.4337 253.795 50.8274 255.147 47.6718C256.499 44.5163 258.302 41.6989 260.556 39.5576C262.81 37.3037 265.515 35.6132 268.671 34.3736C271.826 33.1339 275.207 32.5704 278.813 32.5704C282.307 32.5704 285.462 33.1339 288.393 34.3736C291.323 35.6132 293.802 37.3037 295.943 39.5576C298.085 41.8116 299.662 44.5163 300.902 47.7845C301.916 50.8274 302.592 54.4337 302.592 58.6035ZM288.167 52.5178C288.167 50.0385 287.378 47.7845 285.801 45.9814C284.223 44.1782 281.856 43.2767 278.813 43.2767C277.236 43.2767 275.883 43.502 274.644 43.9528C273.404 44.4036 272.277 45.0798 271.263 45.9814C270.361 46.7703 269.572 47.7845 269.009 48.9115C268.445 50.0385 268.107 51.2781 268.107 52.4051H288.167V52.5178Z" fill="#111F3B"/>
<path d="M346.319 82.157V75.846H346.094C344.516 78.3253 342.374 80.2412 339.557 81.4808C336.74 82.7205 333.697 83.5094 330.541 83.5094C326.935 83.5094 323.779 82.8332 320.962 81.3681C318.145 79.9031 315.778 78.0999 313.862 75.7333C311.946 73.3666 310.481 70.6619 309.467 67.5064C308.453 64.3509 307.889 61.1953 307.889 57.8144C307.889 54.4335 308.453 51.278 309.467 48.1225C310.481 45.0797 312.059 42.3749 313.975 40.0083C315.891 37.6416 318.257 35.8385 321.075 34.4861C323.892 33.1338 326.935 32.4576 330.316 32.4576C333.81 32.4576 336.74 33.1338 339.219 34.4861C341.586 35.8385 343.501 37.3035 344.854 38.994H345.079V8.79118H360.744V82.157H346.319V82.157ZM345.755 57.9271C345.755 56.3494 345.53 54.8843 344.967 53.4192C344.403 51.9542 343.614 50.6018 342.713 49.4748C341.698 48.3479 340.571 47.3336 339.106 46.6574C337.754 45.9812 336.063 45.6431 334.373 45.6431C332.57 45.6431 330.879 45.9812 329.527 46.6574C328.175 47.3336 326.935 48.2352 326.033 49.4748C325.132 50.6018 324.343 51.9542 323.892 53.4192C323.441 54.8843 323.216 56.4621 323.216 57.9271C323.216 59.3922 323.441 60.9699 323.892 62.5477C324.343 64.0128 325.132 65.3651 326.033 66.6048C326.935 67.8445 328.175 68.746 329.527 69.4222C330.879 70.0984 332.57 70.4365 334.373 70.4365C336.176 70.4365 337.754 70.0984 339.106 69.4222C340.459 68.746 341.698 67.7318 342.713 66.6048C343.727 65.4778 344.403 64.1255 344.967 62.6604C345.417 60.9699 345.755 59.5049 345.755 57.9271Z" fill="#111F3B"/>
<path d="M386.101 18.4836C386.101 19.7233 385.876 20.8502 385.425 21.9772C384.974 22.9915 384.298 24.0057 383.509 24.7946C382.72 25.5835 381.706 26.147 380.691 26.5978C379.564 27.0486 378.438 27.274 377.198 27.274C374.606 27.274 372.577 26.3724 370.774 24.6819C369.084 22.9915 368.182 20.9629 368.182 18.4836C368.182 17.3566 368.407 16.2296 368.858 15.1027C369.309 14.0884 369.985 13.0741 370.774 12.2852C371.563 11.4964 372.577 10.9329 373.591 10.3694C374.718 9.9186 375.845 9.69321 377.085 9.69321C378.325 9.69321 379.452 9.9186 380.579 10.3694C381.706 10.8202 382.607 11.3837 383.396 12.1725C384.185 12.9614 384.861 13.863 385.312 14.99C385.876 16.1169 386.101 17.2439 386.101 18.4836ZM369.309 82.1575V33.9231H384.974V82.2702H369.309V82.1575Z" fill="#111F3B"/>
<path d="M393.877 40.4594C396.695 37.7547 399.963 35.7262 403.682 34.3738C407.401 33.0214 411.232 32.3452 415.064 32.3452C419.121 32.3452 422.502 32.796 425.207 33.8103C428.024 34.8246 430.166 36.4023 431.969 38.4309C433.659 40.5721 434.899 43.1642 435.688 46.4324C436.477 49.5879 436.927 53.4196 436.927 57.8148V82.1574H422.615V76.9733H422.277C421.037 79.0019 419.234 80.5796 416.755 81.5939C414.275 82.7209 411.683 83.2843 408.753 83.2843C406.837 83.2843 404.921 83.0589 402.893 82.4955C400.864 81.932 398.948 81.1431 397.371 80.0161C395.68 78.8892 394.328 77.3114 393.201 75.3955C392.074 73.4797 391.623 71.1131 391.623 68.1829C391.623 64.6893 392.525 61.8719 394.441 59.7306C396.356 57.5894 398.723 55.8989 401.653 54.772C404.583 53.645 407.852 52.8561 411.571 52.4053C415.29 51.9545 418.67 51.8418 422.164 51.8418V51.053C422.164 48.6863 421.375 46.8832 419.685 45.7562C417.994 44.6292 415.966 44.0657 413.599 44.0657C411.345 44.0657 409.204 44.5165 407.175 45.5308C405.147 46.5451 403.344 47.6721 401.879 49.0244L393.877 40.4594ZM422.502 61.1957H420.474C418.783 61.1957 416.98 61.3084 415.29 61.4211C413.486 61.5338 412.021 61.8719 410.669 62.3227C409.317 62.7735 408.19 63.4496 407.288 64.3512C406.386 65.2528 405.936 66.3798 405.936 67.8448C405.936 68.7464 406.161 69.5353 406.499 70.2115C406.95 70.8877 407.401 71.3385 408.077 71.7892C408.753 72.1273 409.429 72.4654 410.218 72.5781C411.007 72.6908 411.796 72.8035 412.585 72.8035C415.74 72.8035 418.22 71.9019 419.91 70.0988C421.601 68.2956 422.389 65.929 422.389 62.8862V61.1957H422.502Z" fill="#111F3B"/>
<path d="M495.53 82.157H476.146L460.594 58.9414H460.256V82.157H444.478V8.79118H460.256V53.4192H460.594L475.695 33.8099H494.741L476.484 55.6732L495.53 82.157Z" fill="#FC076F"/>
<path d="M516.942 18.4836C516.942 19.7233 516.717 20.8502 516.266 21.9772C515.815 22.9915 515.139 24.0057 514.35 24.7946C513.561 25.5835 512.547 26.147 511.533 26.5978C510.406 27.0486 509.279 27.274 508.039 27.274C505.447 27.274 503.419 26.3724 501.616 24.6819C499.925 22.9915 499.023 20.9629 499.023 18.4836C499.023 17.3566 499.249 16.2296 499.7 15.1027C500.15 14.0884 500.827 13.0741 501.616 12.2852C502.404 11.4964 503.419 10.9329 504.433 10.3694C505.56 9.9186 506.687 9.69321 507.927 9.69321C509.166 9.69321 510.293 9.9186 511.42 10.3694C512.547 10.8202 513.449 11.3837 514.238 12.1725C515.026 12.9614 515.703 13.863 516.153 14.99C516.717 16.1169 516.942 17.2439 516.942 18.4836ZM500.15 82.1575V33.9231H515.815V82.2702H500.15V82.1575Z" fill="#FC076F"/>
<path d="M543.99 45.7557V64.2381C543.99 66.492 544.44 68.1825 545.229 69.3094C546.131 70.4364 547.596 70.9999 549.85 70.9999C550.639 70.9999 551.428 70.8872 552.329 70.7745C553.231 70.6618 553.907 70.4364 554.471 70.211L554.696 81.8188C553.569 82.1569 552.217 82.495 550.639 82.8331C548.948 83.1712 547.371 83.2839 545.68 83.2839C542.525 83.2839 539.82 82.8331 537.679 82.0442C535.537 81.2553 533.734 80.0157 532.495 78.5506C531.142 76.9728 530.241 75.1697 529.677 73.1411C529.114 70.9999 528.776 68.6333 528.776 66.0412V45.7557H521.112V33.9225H528.663V21.1878H543.99V33.9225H555.147V45.7557H543.99Z" fill="#FC076F"/>
<path d="M591.097 48.1223C589.857 46.8826 588.279 45.8683 586.589 44.9668C584.898 44.1779 583.095 43.7271 581.179 43.7271C579.714 43.7271 578.362 44.0652 577.122 44.6287C575.883 45.1922 575.319 46.2064 575.319 47.6715C575.319 49.0239 575.995 50.0381 577.348 50.6016C578.7 51.1651 580.954 51.8413 583.997 52.5175C585.8 52.8556 587.603 53.4191 589.406 54.2079C591.209 54.8841 592.9 55.8984 594.365 57.0254C595.83 58.1523 596.957 59.6174 597.859 61.3079C598.76 62.9983 599.211 65.0269 599.211 67.2808C599.211 70.3236 598.647 72.9157 597.408 74.9442C596.168 77.0855 594.59 78.7759 592.675 80.0156C590.759 81.2552 588.505 82.2695 586.138 82.833C583.771 83.3965 581.292 83.7346 578.926 83.7346C575.094 83.7346 571.262 83.0584 567.543 81.8187C563.824 80.5791 560.781 78.6632 558.302 76.1839L567.092 66.7173C568.445 68.2951 570.248 69.5347 572.276 70.549C574.305 71.5633 576.446 72.1268 578.813 72.1268C580.052 72.1268 581.292 71.7887 582.532 71.2252C583.772 70.6617 584.335 69.5347 584.335 67.957C584.335 66.4919 583.546 65.365 582.081 64.6888C580.503 64.0126 578.137 63.2237 574.981 62.4348C573.291 62.0967 571.713 61.5332 570.022 60.8571C568.332 60.1809 566.867 59.392 565.627 58.265C564.275 57.1381 563.261 55.7857 562.472 54.2079C561.683 52.6302 561.232 50.6016 561.232 48.3477C561.232 45.4176 561.796 42.9382 563.035 40.9097C564.275 38.8811 565.853 37.1907 567.656 35.951C569.572 34.7113 571.713 33.6971 573.967 33.1336C576.333 32.5701 578.587 32.232 580.841 32.232C584.448 32.232 587.829 32.7955 591.322 33.9224C594.703 35.0494 597.633 36.7399 600 38.9938L591.097 48.1223Z" fill="#FC076F"/>
<defs>
<linearGradient id="paint0_linear_8542_334704" x1="-5.14925" y1="97.8627" x2="75.5931" y2="17.1204" gradientUnits="userSpaceOnUse">
<stop stop-color="#BA07FC"/>
<stop offset="0.3351" stop-color="#FC076F"/>
<stop offset="1" stop-color="#F48517"/>
</linearGradient>
<linearGradient id="paint1_linear_8542_334704" x1="74.9696" y1="94.4012" x2="148.945" y2="20.4261" gradientUnits="userSpaceOnUse">
<stop stop-color="#F48517"/>
<stop offset="0.1412" stop-color="#F7533A"/>
<stop offset="0.277" stop-color="#FA2A57"/>
<stop offset="0.3837" stop-color="#FB1068"/>
<stop offset="0.448" stop-color="#FC076F"/>
<stop offset="0.8199" stop-color="#CE07D1"/>
<stop offset="1" stop-color="#BA07FC"/>
</linearGradient>
<linearGradient id="paint2_linear_8542_334704" x1="82.2129" y1="30.5832" x2="98.3645" y2="7.6435" gradientUnits="userSpaceOnUse">
<stop stop-color="#491263" stop-opacity="0.7"/>
<stop offset="0.4882" stop-color="#8D0BBF" stop-opacity="0.3083"/>
<stop offset="0.7752" stop-color="#B607F7" stop-opacity="0.0780461"/>
<stop offset="0.9219" stop-color="#BA07FC" stop-opacity="0"/>
</linearGradient>
<linearGradient id="paint3_linear_8542_334704" x1="97.9893" y1="102.065" x2="77.7717" y2="84.0361" gradientUnits="userSpaceOnUse">
<stop offset="0.105" stop-color="#E8292A" stop-opacity="0"/>
<stop offset="0.6735" stop-color="#C81010" stop-opacity="0.6428"/>
<stop offset="0.9894" stop-color="#BC0606"/>
</linearGradient>
</defs>
</svg>
