<svg width="24" height="25" viewBox="0 0 24 25" fill="none" xmlns="http://www.w3.org/2000/svg">
<path fill-rule="evenodd" clip-rule="evenodd" d="M5.9807 20.1931C1.84729 16.6072 4.52077 8.62098 10.8737 9.62695V10.366C5.5085 10.1174 3.14753 16.5182 5.9807 20.1931ZM17.5711 6.34213C18.2235 6.8645 19.1246 7.24773 20.3655 7.32301V8.04841C18.9923 7.79292 18.1209 7.11087 17.5711 6.34213ZM15.8489 2.52808C15.8489 2.79497 15.8831 3.08239 15.9264 3.34472H13.3944V15.9571C13.3944 16.5388 13.3351 17.0566 13.2164 17.5105C12.1854 19.7848 9.26325 19.486 8.45801 17.928C9.66016 18.6808 11.6356 18.48 12.4454 16.6939C12.564 16.2399 12.6234 15.7221 12.6234 15.1404V2.52808H15.8489Z" fill="#00F7EF"/>
<path fill-rule="evenodd" clip-rule="evenodd" d="M16.6199 3.3446V3.36057C16.6199 3.65256 16.7066 7.87493 21.1365 8.13726C21.1365 12.0654 21.1388 8.13726 21.1388 11.3993C20.8058 11.4198 18.2212 11.2328 16.6153 9.79792L16.6108 16.1486C16.6495 19.0251 15.0505 21.8446 12.0531 22.4126C11.2136 22.5722 10.4563 22.5905 9.18795 22.3122C1.87464 20.1292 4.30405 9.28239 11.647 10.4435C11.647 13.945 11.6493 10.4435 11.6493 13.945C8.61539 13.4979 7.60257 16.0208 8.4078 17.8275C9.14233 19.4722 12.1603 19.828 13.2142 17.5081C13.3328 17.0542 13.3921 16.5364 13.3921 15.9547V3.3446H16.6199Z" fill="black"/>
<path fill-rule="evenodd" clip-rule="evenodd" d="M10.876 10.3659C11.127 10.3773 11.3847 10.4024 11.6471 10.4435C11.6471 13.945 11.6493 10.4435 11.6493 13.945C8.61543 13.4979 7.60261 16.0208 8.40785 17.8275C8.42153 17.8594 8.43978 17.8937 8.45575 17.9256C8.09533 17.6998 7.80563 17.3895 7.63682 17.0109C6.83158 15.2042 7.84441 12.6813 10.8783 13.1284C10.876 9.91882 10.876 12.59 10.876 10.3659ZM20.3655 8.04601C20.6073 8.08935 20.8651 8.12129 21.1366 8.13726C21.1366 12.0654 21.1388 8.13726 21.1388 11.3993C20.8058 11.4198 18.2213 11.2328 16.6154 9.79792L16.6108 16.1486C16.6496 19.0251 15.0505 21.8446 12.0531 22.4126C11.2136 22.5722 10.4563 22.5905 9.18799 22.3122C7.76 21.8856 6.70384 21.126 5.983 20.1907C6.62628 20.7496 7.4338 21.2013 8.41697 21.4956C9.68528 21.7716 10.4403 21.7533 11.2798 21.5959C14.2772 21.0302 15.8786 18.2107 15.8398 15.3365L15.8443 8.98356C17.4525 10.4184 20.0348 10.6054 20.3701 10.5849C20.3678 7.55329 20.3655 10.7263 20.3655 8.04601ZM16.6199 3.3446V3.36057C16.6199 3.53166 16.6496 5.05773 17.5712 6.34201C16.4625 5.45465 16.0656 4.17265 15.9265 3.3446H16.6199Z" fill="#FF004F"/>
</svg>
