<svg width="30" height="30" viewBox="0 0 30 30" fill="transparent" xmlns="http://www.w3.org/2000/svg">
<rect width="30" height="30" fill="transparent"/>
<path d="M-51 -43C-51 -47.4183 -47.4183 -51 -43 -51H73C77.4183 -51 81 -47.4183 81 -43V73C81 77.4183 77.4183 81 73 81H-43C-47.4183 81 -51 77.4183 -51 73V-43Z" fill="transparent"/>
<path d="M-43 -50H73V-52H-43V-50ZM80 -43V73H82V-43H80ZM73 80H-43V82H73V80ZM-50 73V-43H-52V73H-50ZM-43 80C-46.866 80 -50 76.866 -50 73H-52C-52 77.9706 -47.9706 82 -43 82V80ZM80 73C80 76.866 76.866 80 73 80V82C77.9706 82 82 77.9706 82 73H80ZM73 -50C76.866 -50 80 -46.866 80 -43H82C82 -47.9706 77.9706 -52 73 -52V-50ZM-43 -52C-47.9706 -52 -52 -47.9706 -52 -43H-50C-50 -46.866 -46.866 -50 -43 -50V-52Z" fill="#E7E7E7"/>
<path d="M15 30C23.2843 30 30 23.2843 30 15C30 6.71573 23.2843 0 15 0C6.71573 0 0 6.71573 0 15C0 23.2843 6.71573 30 15 30Z" fill="#1D9BF0"/>
<path d="M12.1807 22.9869C18.8317 22.9869 22.4692 17.4766 22.4692 12.6984C22.4692 12.5424 22.4657 12.3866 22.4587 12.2311C23.1664 11.7181 23.7772 11.0832 24.2624 10.3561C23.6024 10.6482 22.9024 10.8401 22.1857 10.9254C22.9405 10.4734 23.5053 9.76254 23.775 8.92514C23.0652 9.34621 22.2888 9.64298 21.4792 9.80264C20.9343 9.22148 20.2129 8.83639 19.4268 8.70713C18.6407 8.57787 17.834 8.71167 17.1317 9.08776C16.4294 9.46385 15.8709 10.0612 15.5429 10.7872C15.2148 11.5131 15.1354 12.327 15.3172 13.1026C13.8794 13.0308 12.4727 12.6574 11.1886 12.0066C9.90453 11.3557 8.77169 10.4421 7.8637 9.32489C7.40127 10.1209 7.25958 11.0632 7.46747 11.96C7.67536 12.8567 8.21721 13.6406 8.9827 14.1519C8.40852 14.1354 7.84673 13.981 7.3447 13.7019C7.3447 13.7169 7.3447 13.7319 7.3447 13.7484C7.34514 14.5833 7.63431 15.3923 8.16318 16.0384C8.69206 16.6844 9.42808 17.1276 10.2465 17.2929C9.71389 17.4384 9.15504 17.4597 8.61295 17.3551C8.84395 18.0731 9.29332 18.701 9.89835 19.1513C10.5034 19.6016 11.2339 19.8518 11.988 19.8669C10.7076 20.8708 9.12695 21.4152 7.49995 21.4127C7.21174 21.4129 6.92375 21.3963 6.63745 21.3632C8.29109 22.4251 10.2154 22.9888 12.1807 22.9869Z" fill="white"/>
<rect x="-408.5" y="-778.5" width="743" height="2224" rx="4.5" stroke="#7B61FF" stroke-dasharray="10 5"/>
</svg>
