<svg width="29" height="32" viewBox="0 0 29 32" fill="none" xmlns="http://www.w3.org/2000/svg">
<rect width="29" height="32" fill="transparent"/>
<path d="M-52 -42C-52 -46.4183 -48.4183 -50 -44 -50H72C76.4183 -50 80 -46.4183 80 -42V74C80 78.4183 76.4183 82 72 82H-44C-48.4183 82 -52 78.4183 -52 74V-42Z" fill="transparent"/>
<path d="M-44 -49H72V-51H-44V-49ZM79 -42V74H81V-42H79ZM72 81H-44V83H72V81ZM-51 74V-42H-53V74H-51ZM-44 81C-47.866 81 -51 77.866 -51 74H-53C-53 78.9706 -48.9706 83 -44 83V81ZM79 74C79 77.866 75.866 81 72 81V83C76.9706 83 81 78.9706 81 74H79ZM72 -49C75.866 -49 79 -45.866 79 -42H81C81 -46.9706 76.9706 -51 72 -51V-49ZM-44 -51C-48.9706 -51 -53 -46.9706 -53 -42H-51C-51 -45.866 -47.866 -49 -44 -49V-51Z" fill="#E7E7E7"/>
<path d="M26.5567 15.3846L21.402 20.3331H16.2473L11.7369 24.6631V20.3331H5.93787V1.77612H26.5567V15.3846Z" fill="white"/>
<path d="M6.25892 0.879883L0.5 6.40845V26.3113H7.41071V31.8399L13.1696 26.3113H17.7768L28.1428 16.3599V0.879883H6.25892ZM25.8393 15.2542L21.2321 19.677H16.625L12.5937 23.547V19.677H7.41071V3.09131H25.8393V15.2542Z" fill="#9146FF"/>
<path d="M22.3839 6.96118H20.0803V13.5955H22.3839V6.96118Z" fill="#9146FF"/>
<path d="M16.0491 6.96118H13.7455V13.5955H16.0491V6.96118Z" fill="#9146FF"/>
<rect x="-409.5" y="-954.5" width="743" height="2224" rx="4.5" stroke="#7B61FF" stroke-dasharray="10 5"/>
</svg>
