<svg width="30" height="22" viewBox="0 0 30 22" fill="transparent" xmlns="http://www.w3.org/2000/svg">
<rect width="30" height="22" fill="transparent"/>
<path d="M-51 -47C-51 -51.4183 -47.4183 -55 -43 -55H73C77.4183 -55 81 -51.4183 81 -47V69C81 73.4183 77.4183 77 73 77H-43C-47.4183 77 -51 73.4183 -51 69V-47Z" fill="transparent"/>
<path d="M-43 -54H73V-56H-43V-54ZM80 -47V69H82V-47H80ZM73 76H-43V78H73V76ZM-50 69V-47H-52V69H-50ZM-43 76C-46.866 76 -50 72.866 -50 69H-52C-52 73.9706 -47.9706 78 -43 78V76ZM80 69C80 72.866 76.866 76 73 76V78C77.9706 78 82 73.9706 82 69H80ZM73 -54C76.866 -54 80 -50.866 80 -47H82C82 -51.9706 77.9706 -56 73 -56V-54ZM-43 -56C-47.9706 -56 -52 -51.9706 -52 -47H-50C-50 -50.866 -46.866 -54 -43 -54V-56Z" fill="#E7E7E7"/>
<g clip-path="url(#clip0_11823_527821)">
<path d="M29.3693 3.80682C29.0284 2.51136 28.0057 1.48864 26.7102 1.13068C24.375 0.5 15 0.5 15 0.5C15 0.5 5.625 0.5 3.27273 1.13068C1.97727 1.47159 0.971591 2.49432 0.613636 3.80682C0 6.15909 0 11.0682 0 11.0682C0 11.0682 0 15.9773 0.630682 18.3295C0.971591 19.625 1.99432 20.6477 3.28977 21.0057C5.625 21.6364 15 21.6364 15 21.6364C15 21.6364 24.375 21.6364 26.7273 21.0057C28.0227 20.6648 29.0284 19.642 29.3864 18.3295C30 15.9773 30 11.0682 30 11.0682C30 11.0682 30 6.15909 29.3693 3.80682Z" fill="#FF0000"/>
<path d="M11.9318 15.5341L19.7727 11.0682L11.9318 6.60229V15.5341Z" fill="white"/>
</g>
<rect x="-408.5" y="-74.5" width="743" height="2224" rx="4.5" stroke="#7B61FF" stroke-dasharray="10 5"/>
<defs>
<clipPath id="clip0_11823_527821">
<rect width="30" height="21.1364" fill="white" transform="translate(0 0.5)"/>
</clipPath>
</defs>
</svg>
