<?xml version="1.0" encoding="UTF-8" standalone="no"?>
<svg width="273px" height="273px" viewBox="0 0 273 273" version="1.1" xmlns="http://www.w3.org/2000/svg" xmlns:xlink="http://www.w3.org/1999/xlink">
    <defs></defs>
    <g id="Final" stroke="none" stroke-width="1" fill="none" fill-rule="evenodd">
        <g id="logo-invert">
            <g id="mark" transform="translate(0.000000, 75.000000)">
                <path d="M72.8389537,153.01151 L34.017267,191.833196 C26.3210102,199.529453 13.8558151,199.525571 6.16512198,191.834878 C-1.5272621,184.142494 -1.52481824,171.674355 6.1668036,163.982733 L44.9884903,125.161046 C50.8713792,137.284279 60.7157211,147.128621 72.8389537,153.01151 L72.8389537,153.01151 Z M44.9884903,72.8389537 L6.1668036,34.017267 C-1.52481824,26.3256452 -1.5272621,13.8575061 6.16512198,6.16512198 C13.8558151,-1.52557113 26.3210102,-1.52945323 34.017267,6.1668036 L72.8389537,44.9884903 C60.7157211,50.8713792 50.8713792,60.7157211 44.9884903,72.8389537 L44.9884903,72.8389537 Z M125.161046,44.9884903 L163.982733,6.1668036 C171.67899,-1.52945323 184.144185,-1.52557113 191.834878,6.16512198 C199.527262,13.8575061 199.524818,26.3256452 191.833196,34.017267 L153.01151,72.8389537 C147.128621,60.7157211 137.284279,50.8713792 125.161046,44.9884903 L125.161046,44.9884903 Z M153.01151,125.161046 L191.833196,163.982733 C199.524818,171.674355 199.527262,184.142494 191.834878,191.834878 C184.144185,199.525571 171.67899,199.529453 163.982733,191.833196 L125.161046,153.01151 C137.284279,147.128621 147.128621,137.284279 153.01151,125.161046 L153.01151,125.161046 Z" id="x" fill="#F3F3F4"></path>
                <path d="M99,129 C115.568542,129 129,115.568542 129,99 C129,82.4314575 115.568542,69 99,69 C82.4314575,69 69,82.4314575 69,99 C69,115.568542 82.4314575,129 99,129 Z" id="circle" fill="#4D76BA"></path>
            </g>
        </g>
    </g>
</svg>
